Coordinates
version=1
nRows=13
nColumns=34
inDegrees=yes

Units are S.I. units (second, meters, Newtons, ...)
If the header above contains a line with 'inDegrees', this indicates whether rotational values are in degrees (yes) or radians (no).

endheader
time	pelvis_tilt	pelvis_list	pelvis_rotation	pelvis_tx	pelvis_ty	pelvis_tz	hip_flexion_r	hip_adduction_r	hip_rotation_r	knee_angle_r	ankle_angle_r	subtalar_angle_r	mtp_angle_r	hip_flexion_l	hip_adduction_l	hip_rotation_l	knee_angle_l	ankle_angle_l	subtalar_angle_l	mtp_angle_l	lumbar_extension	lumbar_bending	lumbar_rotation	arm_flex_r	arm_add_r	arm_rot_r	elbow_flex_r	pro_sup_r	arm_flex_l	arm_add_l	arm_rot_l	elbow_flex_l	pro_sup_l
      0.00000000	      8.03616642	     -3.98781000	    -10.42947038	     -6.42114001	      0.99144487	     -1.01547774	     -7.09859981	      4.35387326	     -3.27308513	     11.32762758	     10.55871798	    -12.33649734	      0.00000000	     -5.72453490	     -5.64440125	     -0.94621929	     12.21021512	     10.61135439	     -8.53356684	      0.00000000	    -18.67982363	      3.73125749	     -1.70467784	      7.21631025	     -3.83313085	      8.97241724	     20.20591830	     83.79484032	      6.44620361	     -1.84505938	      7.98964423	     22.35104768	     75.81878076
      0.01666670	     12.06152228	     -2.91088691	    -10.49908156	     -6.42343184	      0.99972541	     -1.01502629	    -10.79932019	      2.88069492	     -2.35571244	     11.35230187	     12.61774772	    -12.61238466	      0.00000000	     -9.70295617	     -3.04676250	      0.28979253	     12.02284743	      8.39128920	    -10.72451966	      0.00000000	    -24.40157814	      2.29491336	     -1.66947926	      8.29121883	     -3.05554708	      4.30261290	     20.93001113	     83.02667188	      8.30098272	     -1.43034560	      4.38547175	     22.71216392	     75.55536633
      0.03333330	     12.94813980	     -1.90989984	    -10.63250506	     -6.42468970	      1.00387469	     -1.01331272	    -12.09153624	      1.87413795	     -3.31013722	      9.84136622	     11.46424085	    -12.17961914	      0.00000000	    -10.48029245	     -1.63340159	      1.04022795	     12.00245059	      7.71667680	    -12.12510900	      0.00000000	    -25.53886474	      0.91758151	     -1.62594299	      8.25580078	     -2.31571989	      0.47827026	     21.97494567	     82.99670564	      8.80903935	     -1.64518010	      3.18651647	     22.69682291	     75.98873946
      0.05000000	     14.85469254	     -1.91193492	    -10.32625440	     -6.42654432	      1.00864133	     -1.01272748	    -14.67960578	      1.59641017	     -3.27003738	      8.67920868	     10.57483623	    -11.74476991	      0.00000000	    -12.40145040	     -1.24006218	      1.82108881	     12.13447810	      6.19059948	    -13.43048168	      0.00000000	    -28.02621397	      0.57023348	     -1.15449325	      8.63322804	     -2.33437839	     -0.57834451	     22.28451800	     83.46148970	      9.54201281	     -1.73822405	      3.63288901	     22.55785107	     76.42886127
      0.06666670	     15.87940808	     -2.01699563	    -10.01876318	     -6.42673515	      1.00923198	     -1.01195859	    -16.14581808	      1.67291247	     -3.13277009	      8.07179660	      9.94667685	    -11.64707237	      0.00000000	    -12.82222229	     -1.19198190	      2.61345378	     13.34561270	      4.96429985	    -15.21401985	      0.00000000	    -29.54654204	      0.58325355	     -0.77225152	      9.09724341	     -2.51543665	     -1.32946144	     22.75045441	     84.09360220	     10.18985714	     -1.65479082	      4.30204294	     22.13847117	     76.83258605
      0.08333330	     16.23573807	     -2.10489962	     -9.71449306	     -6.42571719	      1.00781439	     -1.01065276	    -16.73644470	      1.86985044	     -2.80179750	      7.92788784	      9.97622317	    -11.58563378	      0.00000000	    -12.14880910	     -1.34548433	      2.77449023	     15.34051423	      4.58612778	    -15.54346985	      0.00000000	    -30.14661186	      0.66999065	     -0.48857792	      9.61376262	     -2.73679802	     -1.46111035	     22.84260337	     84.22504440	     10.56843551	     -1.60219342	      4.35839456	     22.08527806	     76.87267891
      0.10000000	     16.31149213	     -2.24006760	     -9.09905257	     -6.42504578	      1.00516923	     -1.01015532	    -17.13664835	      2.24867623	     -2.73599601	      7.61816409	      9.56326780	    -12.20178140	      0.00000000	    -10.89557309	     -1.52633423	      4.20248531	     17.86319892	      4.35345884	    -17.79721817	      0.00000000	    -30.29322558	      1.02744520	     -0.37528032	      9.87477534	     -3.04981369	     -1.93402043	     23.05699503	     84.86927118	     10.92232163	     -1.37417080	      4.34956521	     21.47787881	     76.93619123
      0.11666670	     16.18887582	     -2.53639174	     -8.59471746	     -6.42541917	      1.00229792	     -1.00996491	    -17.15025660	      2.84980502	     -2.40410483	      7.58973232	      9.59655532	    -12.86078123	      0.00000000	     -9.27455822	     -1.91775556	      5.07269627	     20.69652609	      4.28751997	    -19.32319457	      0.00000000	    -30.19847061	      1.55419553	     -0.16994065	     10.16874344	     -3.39745101	     -2.34460643	     23.20936924	     85.51411680	     11.04897093	     -1.19993445	      3.99425366	     21.40971594	     76.86217234
      0.13333330	     15.81830187	     -2.97490397	     -8.01809627	     -6.42597164	      1.00047992	     -1.01055632	    -16.75191896	      3.63909642	     -2.15646617	      7.79987174	      9.77053833	    -13.53809216	      0.00000000	     -7.11754995	     -2.48280310	      5.90217515	     24.08774426	      4.54046910	    -20.54274458	      0.00000000	    -29.82013442	      2.30951063	     -0.06913544	     10.50121899	     -3.83448258	     -2.65758288	     23.43832676	     86.13925333	     10.98743709	     -0.97978025	      3.38125843	     21.50642825	     76.70156223
      0.15000000	     14.91374119	     -3.52031197	     -7.45824100	     -6.42653043	      0.99741030	     -1.01164855	    -15.51107271	      4.57543613	     -1.87014878	      8.47434015	     10.10872237	    -14.43660603	      0.00000000	     -4.08284142	     -3.19285793	      6.67359733	     28.09281736	      4.69742040	    -21.31485729	      0.00000000	    -28.84114957	      3.36875426	      0.02781049	     10.81983416	     -4.37628876	     -2.91249386	     23.74231748	     87.00037300	     10.71687103	     -0.69457026	      2.33160683	     21.77858920	     76.43590838
      0.16666670	     13.95411176	     -4.23300905	     -6.96439535	     -6.42777971	      0.99294220	     -1.01310661	    -14.24247602	      5.63112905	     -1.65355702	      9.02618509	     10.46234926	    -15.24774189	      0.00000000	     -0.85681550	     -4.02361098	      7.40229510	     32.35317886	      5.67582531	    -21.38949126	      0.00000000	    -27.90339123	      4.56718171	      0.18409560	     11.21330685	     -5.04568446	     -3.03877211	     24.16813281	     87.86110715	     10.37705268	     -0.35229585	      1.21355329	     22.19138104	     76.18621825
      0.18333330	     13.09200986	     -5.17145093	     -6.64748960	     -6.43019600	      0.98694340	     -1.01502342	    -13.30689137	      6.81008808	     -1.49660700	      9.02986010	     10.67214885	    -15.88262720	      0.00000000	      2.34611505	     -4.99849403	      8.08621373	     36.62046173	      7.27328855	    -21.15415336	      0.00000000	    -27.23283929	      5.96869385	      0.52056915	     11.72460779	     -5.83429699	     -3.09067169	     24.77245831	     88.49614674	     10.01557078	      0.03890111	      0.32429292	     22.69771469	     76.01238207
      0.20000000	     11.69341609	     -6.25984873	     -6.56762402	     -6.43311202	      0.98041115	     -1.01709415	    -11.58557228	      8.14195936	     -0.98572049	      9.32207041	     11.05403782	    -16.87894665	      0.00000000	      6.37045773	     -6.19616296	      8.59146312	     41.07984885	      8.79986355	    -19.51189387	      0.00000000	    -26.02364389	      7.58868952	      0.91696780	     12.16441728	     -6.78260415	     -3.11176993	     25.72990095	     89.34819691	      9.52487335	      0.55079921	     -0.98478492	     23.46209733	     75.79323431
